<?xml version="1.0" standalone="no"?>
<!DOCTYPE svg PUBLIC "-//W3C//DTD SVG 20010904//EN" "http://www.w3.org/TR/2001/REC-SVG-20010904/DTD/svg10.dtd">
<!-- Created using Krita: http://krita.org -->
<svg xmlns="http://www.w3.org/2000/svg" 
    xmlns:xlink="http://www.w3.org/1999/xlink"
    xmlns:krita="http://krita.org/namespaces/svg/krita"
    xmlns:sodipodi="http://sodipodi.sourceforge.net/DTD/sodipodi-0.dtd"
    width="245.76pt"
    height="245.76pt"
    viewBox="0 0 245.76 245.76">
<defs/>
<circle id="shape0" transform="translate(50.88, 50.88)" r="72" cx="72" cy="72" fill="none" stroke="#ffffff" stroke-width="1.2" stroke-linecap="square" stroke-linejoin="bevel"/><rect id="shape0" transform="matrix(1.00000001504341 0 0 1.0000000349108 134.879999855583 98.3999996648563)" fill="none" stroke="#ffffff" stroke-width="1.2" stroke-linecap="square" stroke-linejoin="bevel" width="19.2" height="19.2"/><rect id="shape01" transform="matrix(0.999999987810263 0 0 1.00000000276995 113.280000117021 98.3999999734085)" fill="none" stroke="#ffffff" stroke-width="1.2" stroke-linecap="square" stroke-linejoin="bevel" width="19.2" height="19.2"/><rect id="shape02" transform="matrix(0.999999994488801 0 0 0.999999983522613 91.6800000529075 98.4000001581829)" fill="none" stroke="#ffffff" stroke-width="1.2" stroke-linecap="square" stroke-linejoin="bevel" width="19.2" height="19.2"/><rect id="shape03" transform="matrix(0.999999965543552 0 0 0.999999984730895 145.680000330782 120.000000146583)" fill="none" stroke="#ffffff" stroke-width="1.2" stroke-linecap="square" stroke-linejoin="bevel" width="19.2" height="19.2"/><rect id="shape04" transform="matrix(0.999999964471321 0 0 1.00000002142846 80.8800003410753 119.999999794287)" fill="none" stroke="#ffffff" stroke-width="1.2" stroke-linecap="square" stroke-linejoin="bevel" width="19.2" height="19.2"/><rect id="shape05" transform="matrix(0.999999995005482 0 0 1.00000001446674 124.080000047947 119.999999861119)" fill="none" stroke="#ffffff" stroke-width="1.2" stroke-linecap="square" stroke-linejoin="bevel" width="19.2" height="19.2"/><rect id="shape06" transform="matrix(0.99999999138558 0 0 1.00000004177121 91.6800000826984 141.599999598996)" fill="none" stroke="#ffffff" stroke-width="1.2" stroke-linecap="square" stroke-linejoin="bevel" width="19.2" height="19.2"/><rect id="shape07" transform="matrix(1.00000001374352 0 0 1.00000003228564 102.479999868062 119.999999690058)" fill="none" stroke="#ffffff" stroke-width="1.2" stroke-linecap="square" stroke-linejoin="bevel" width="19.2" height="19.2"/><rect id="shape08" transform="matrix(1.00000000325518 0 0 1.00000005090127 113.27999996875 141.599999511348)" fill="none" stroke="#ffffff" stroke-width="1.2" stroke-linecap="square" stroke-linejoin="bevel" width="19.2" height="19.2"/><rect id="shape09" transform="matrix(1.00000002240601 0 0 1.00000003424056 113.279999784902 163.199999671291)" fill="none" stroke="#ffffff" stroke-width="1.2" stroke-linecap="square" stroke-linejoin="bevel" width="19.2" height="19.2"/><rect id="shape010" transform="matrix(1.00000002470857 0 0 1.00000002893355 134.879999762798 141.599999722238)" fill="none" stroke="#ffffff" stroke-width="1.2" stroke-linecap="square" stroke-linejoin="bevel" width="19.2" height="19.2"/><path id="shape1" transform="translate(122.88, 74.1389255832678)" fill="none" stroke="#ffffff" stroke-width="1.2" stroke-linecap="square" stroke-linejoin="miter" stroke-miterlimit="2" d="M0 21.0211L36.4096 0"/><path id="shape2" transform="translate(159.475232414638, 66.3362015473291)" fill="none" stroke="#ffffff" stroke-width="1.2" stroke-linecap="square" stroke-linejoin="miter" stroke-miterlimit="2" d="M0 7.69553L0 0"/><path id="shape3" transform="translate(130.270262481399, 66.3362015473291)" fill="none" stroke="#ffffff" stroke-width="1.2" stroke-linecap="square" stroke-linejoin="miter" stroke-miterlimit="2" d="M29.205 0L0 0"/><path id="shape4" transform="translate(122.476424163218, 66.3362015473291)" fill="none" stroke="#ffffff" stroke-width="1.2" stroke-linecap="square" stroke-linejoin="miter" stroke-miterlimit="2" d="M7.72358 0L0 28.8248"/><path id="shape5" transform="translate(114.780002693433, 66.3900037789827)" fill="none" stroke="#ffffff" stroke-width="1.2" stroke-linecap="square" stroke-linejoin="miter" stroke-miterlimit="2" d="M7.68 28.8L0 0"/><path id="shape6" transform="translate(101.990222287444, 66.3362015473291)" fill="none" stroke="#000000" stroke-width="1.2" stroke-linecap="square" stroke-linejoin="miter" stroke-miterlimit="2" d="M2.50693e+15 nanL0 nan"/><path id="shape7" transform="translate(84.794573614591, 66.3361515473291)" fill="none" stroke="#ffffff" stroke-width="1.2" stroke-linecap="square" stroke-linejoin="miter" stroke-miterlimit="2" d="M29.28 0.0001L0 0"/><path id="shape8" transform="translate(84.599999831685, 70.7284854231782)" fill="none" stroke="#000000" stroke-width="1.2" stroke-linecap="square" stroke-linejoin="miter" stroke-miterlimit="2" d="Mnan 0Lnan 9.12"/><path id="shape9" transform="translate(84.720005117303, 73.3081036940594)" fill="none" stroke="#000000" stroke-width="1.2" stroke-linecap="square" stroke-linejoin="miter" stroke-miterlimit="2" d="Mnan 0Lnan 0.72"/><path id="shape10" transform="translate(86.1256093766948, 82.6942920203767)" fill="none" stroke="#000000" stroke-width="1.2" stroke-linecap="square" stroke-linejoin="miter" stroke-miterlimit="2" d="Mnan 0Lnan 16.56"/><path id="shape11" transform="translate(84.428550893956, 69.9095963756276)" fill="none" stroke="#000000" stroke-width="1.2" stroke-linecap="square" stroke-linejoin="miter" stroke-miterlimit="2" d="Mnan 0Lnan 7.44"/><path id="shape12" transform="translate(84.8027044100355, 73.6043383401942)" fill="none" stroke="#ffffff" stroke-width="1.2" stroke-linecap="square" stroke-linejoin="miter" stroke-miterlimit="2" d="M37.7064 21.7698L0 0"/><path id="shape13" transform="translate(84.7679566477734, 66.3361514564241)" fill="none" stroke="#ffffff" stroke-width="1.2" stroke-linecap="square" stroke-linejoin="miter" stroke-miterlimit="2" d="M0 0L0 7.06204"/>
</svg>
