<?xml version="1.0" standalone="no"?>
<!DOCTYPE svg PUBLIC "-//W3C//DTD SVG 20010904//EN" "http://www.w3.org/TR/2001/REC-SVG-20010904/DTD/svg10.dtd">
<!-- Created using Krita: http://krita.org -->
<svg xmlns="http://www.w3.org/2000/svg" 
    xmlns:xlink="http://www.w3.org/1999/xlink"
    xmlns:krita="http://krita.org/namespaces/svg/krita"
    xmlns:sodipodi="http://sodipodi.sourceforge.net/DTD/sodipodi-0.dtd"
    width="144.96pt"
    height="144.96pt"
    viewBox="0 0 144.96 144.96">
<defs/>
<circle id="shape0" transform="matrix(1.00000002235174 0 0 1.00000002235174 0.479998390674559 0.479998390674553)" r="72" cx="72" cy="72" fill="none" stroke="#ebdbb2" stroke-width="1.2" stroke-linecap="square" stroke-linejoin="bevel"/><rect id="shape01" transform="matrix(1.00000003739515 0 0 1.00000005726254 84.4800001238039 47.9999991176857)" fill="none" stroke="#ebdbb2" stroke-width="1.2" stroke-linecap="square" stroke-linejoin="bevel" width="19.2" height="19.2"/><rect id="shape01" transform="matrix(1.00000001016201 0 0 1.00000002512169 62.8799999024443 47.9999994262378)" fill="none" stroke="#ebdbb2" stroke-width="1.2" stroke-linecap="square" stroke-linejoin="bevel" width="19.2" height="19.2"/><rect id="shape02" transform="matrix(1.00000001684054 0 0 1.00000000587435 41.2799993555332 47.9999996110122)" fill="none" stroke="#ebdbb2" stroke-width="1.2" stroke-linecap="square" stroke-linejoin="bevel" width="19.2" height="19.2"/><rect id="shape03" transform="matrix(0.999999987895293 0 0 1.00000000708264 95.2800008404018 69.6000000822099)" fill="none" stroke="#ebdbb2" stroke-width="1.2" stroke-linecap="square" stroke-linejoin="bevel" width="19.2" height="19.2"/><rect id="shape04" transform="matrix(0.999999986823062 0 0 1.0000000437802 30.4799994023022 69.599999729914)" fill="none" stroke="#ebdbb2" stroke-width="1.2" stroke-linecap="square" stroke-linejoin="bevel" width="19.2" height="19.2"/><rect id="shape05" transform="matrix(1.00000001735722 0 0 1.00000003681848 73.6800000747691 69.599999796746)" fill="none" stroke="#ebdbb2" stroke-width="1.2" stroke-linecap="square" stroke-linejoin="bevel" width="19.2" height="19.2"/><rect id="shape06" transform="matrix(1.00000001373732 0 0 1.00000006412295 41.2799993853241 91.2000000174205)" fill="none" stroke="#ebdbb2" stroke-width="1.2" stroke-linecap="square" stroke-linejoin="bevel" width="19.2" height="19.2"/><rect id="shape07" transform="matrix(1.00000003609526 0 0 1.00000005463738 52.0799994120865 69.5999996256848)" fill="none" stroke="#ebdbb2" stroke-width="1.2" stroke-linecap="square" stroke-linejoin="bevel" width="19.2" height="19.2"/><rect id="shape08" transform="matrix(1.00000002560692 0 0 1.00000007325301 62.8799997541733 91.1999999297725)" fill="none" stroke="#ebdbb2" stroke-width="1.2" stroke-linecap="square" stroke-linejoin="bevel" width="19.2" height="19.2"/><rect id="shape09" transform="matrix(1.00000004475775 0 0 1.0000000565923 62.8799995703253 112.800000572513)" fill="none" stroke="#ebdbb2" stroke-width="1.2" stroke-linecap="square" stroke-linejoin="bevel" width="19.2" height="19.2"/><rect id="shape010" transform="matrix(1.00000004706031 0 0 1.00000005128529 84.4800000310189 91.2000001406627)" fill="none" stroke="#ebdbb2" stroke-width="1.2" stroke-linecap="square" stroke-linejoin="bevel" width="19.2" height="19.2"/><path id="shape1" transform="matrix(1.00000002235174 0 0 1.00000002235174 72.48 23.7389244938198)" fill="none" stroke="#ebdbb2" stroke-width="1.2" stroke-linecap="square" stroke-linejoin="miter" stroke-miterlimit="2" d="M0 21.0211L36.4096 0"/><path id="shape2" transform="matrix(1.00000002235174 0 0 1.00000002235174 109.075233232605 15.9362002834767)" fill="none" stroke="#ebdbb2" stroke-width="1.2" stroke-linecap="square" stroke-linejoin="miter" stroke-miterlimit="2" d="M0 7.69553L0 0"/><path id="shape3" transform="matrix(1.00000002235174 0 0 1.00000002235174 79.8702626465842 15.9362002834767)" fill="none" stroke="#ebdbb2" stroke-width="1.2" stroke-linecap="square" stroke-linejoin="miter" stroke-miterlimit="2" d="M29.205 0L0 0"/><path id="shape4" transform="matrix(1.00000002235174 0 0 1.00000002235174 72.0764241541974 15.9362002834767)" fill="none" stroke="#ebdbb2" stroke-width="1.2" stroke-linecap="square" stroke-linejoin="miter" stroke-miterlimit="2" d="M7.72358 0L0 28.8248"/><path id="shape5" transform="matrix(1.00000002235174 0 0 1.00000002235174 64.380002512384 15.9900025163329)" fill="none" stroke="#ebdbb2" stroke-width="1.2" stroke-linecap="square" stroke-linejoin="miter" stroke-miterlimit="2" d="M7.68 28.8L0 0"/><path id="shape7" transform="matrix(1.00000002235174 0 0 1.00000002235174 34.3945727633154 15.9361502834755)" fill="none" stroke="#ebdbb2" stroke-width="1.2" stroke-linecap="square" stroke-linejoin="miter" stroke-miterlimit="2" d="M29.28 0.0001L0 0"/><path id="shape12" transform="matrix(1.00000002235174 0 0 1.00000002235174 34.4027035589416 23.2043372387972)" fill="none" stroke="#ebdbb2" stroke-width="1.2" stroke-linecap="square" stroke-linejoin="miter" stroke-miterlimit="2" d="M37.7064 21.7698L0 0"/><path id="shape13" transform="matrix(1.00000002235174 0 0 1.00000002235174 34.3679557959029 15.9361501925706)" fill="none" stroke="#ebdbb2" stroke-width="1.2" stroke-linecap="square" stroke-linejoin="miter" stroke-miterlimit="2" d="M0 0L0 7.06204"/>
</svg>
