<?xml version="1.0" standalone="no"?>
<!DOCTYPE svg PUBLIC "-//W3C//DTD SVG 20010904//EN" "http://www.w3.org/TR/2001/REC-SVG-20010904/DTD/svg10.dtd">
<!-- Created using Krita: http://krita.org -->
<svg xmlns="http://www.w3.org/2000/svg" 
    xmlns:xlink="http://www.w3.org/1999/xlink"
    xmlns:krita="http://krita.org/namespaces/svg/krita"
    xmlns:sodipodi="http://sodipodi.sourceforge.net/DTD/sodipodi-0.dtd"
    width="245.76pt"
    height="245.76pt"
    viewBox="0 0 245.76 245.76">
<defs/>
<rect id="shape0" transform="translate(26.88, 98.88)" fill="none" stroke="#000000" stroke-width="1.2" stroke-linecap="square" stroke-linejoin="bevel" width="192" height="48"/><rect id="shape1" transform="matrix(-0.99997493640223 0.00708001181913717 -0.00708001181913717 -0.99997493640223 147.036193056287 146.696352488969)" fill="none" stroke="#000000" stroke-width="1.2" stroke-linecap="square" stroke-linejoin="bevel" width="48" height="48"/><path id="shape2" transform="matrix(-0.707106781186547 0.707106781186547 -0.707106781186547 -0.707106781186547 218.750554452795 95.5442684931264)" fill="none" stroke="#000000" stroke-width="1.2" stroke-linecap="square" stroke-linejoin="miter" stroke-miterlimit="2" d="M0 0L132.9 132.9"/><path id="shape3" transform="matrix(-0.707106781186547 0.707106781186547 -0.707106781186547 -0.707106781186547 214.507911874416 150.019774478699)" fill="none" stroke="#000000" stroke-width="1.2" stroke-linecap="square" stroke-linejoin="miter" stroke-miterlimit="2" d="M132.692 132.692L0 0"/><path id="shape4" transform="matrix(-0.707106781186547 0.707106781186547 -0.707106781186547 -0.707106781186547 214.865094446008 71.6102969976551)" fill="none" stroke="#000000" stroke-width="1.2" stroke-linecap="square" stroke-linejoin="miter" stroke-miterlimit="2" d="M28.8 0L0 28.8"/><path id="shape5" transform="matrix(-0.707106781186547 0.707106781186547 -0.707106781186547 -0.707106781186547 194.46487904726 51.2565773013194)" fill="none" stroke="#000000" stroke-width="1.2" stroke-linecap="square" stroke-linejoin="miter" stroke-miterlimit="2" d="M0 0L28.8 28.8"/><path id="shape6" transform="matrix(-0.707106781186547 0.707106781186547 -0.707106781186547 -0.707106781186547 150.687028014944 58.3472591552557)" fill="none" stroke="#000000" stroke-width="1.2" stroke-linecap="square" stroke-linejoin="miter" stroke-miterlimit="2" d="M43.2 0L0 43.2"/><path id="shape7" transform="matrix(-0.707106781186547 0.707106781186547 -0.707106781186547 -0.707106781186547 150.691270167051 187.31940255052)" fill="none" stroke="#000000" stroke-width="1.2" stroke-linecap="square" stroke-linejoin="miter" stroke-miterlimit="2" d="M0 43.206L43.206 0"/><path id="shape8" transform="matrix(-0.707106781186547 0.707106781186547 -0.707106781186547 -0.707106781186547 91.9804500967461 194.482649097548)" fill="none" stroke="#000000" stroke-width="1.2" stroke-linecap="square" stroke-linejoin="miter" stroke-miterlimit="2" d="M0 0L28.8 28.8"/><path id="shape9" transform="matrix(-0.707106781186547 0.707106781186547 -0.707106781186547 -0.707106781186547 71.6157747985735 174.117973799375)" fill="none" stroke="#000000" stroke-width="1.2" stroke-linecap="square" stroke-linejoin="miter" stroke-miterlimit="2" d="M28.8 0L0 28.8"/>
</svg>
