<?xml version="1.0" standalone="no"?>
<!DOCTYPE svg PUBLIC "-//W3C//DTD SVG 20010904//EN" "http://www.w3.org/TR/2001/REC-SVG-20010904/DTD/svg10.dtd">
<!-- Created using Krita: http://krita.org -->
<svg xmlns="http://www.w3.org/2000/svg" 
    xmlns:xlink="http://www.w3.org/1999/xlink"
    xmlns:krita="http://krita.org/namespaces/svg/krita"
    xmlns:sodipodi="http://sodipodi.sourceforge.net/DTD/sodipodi-0.dtd"
    width="193.2pt"
    height="191.28pt"
    viewBox="0 0 193.2 191.28">
<defs/>
<rect id="shape0" transform="matrix(1.00000002235174 0 0 1.00000002235174 0.535881331905458 71.6757097631071)" fill="none" stroke="#ebdbb2" stroke-width="1.2" stroke-linecap="square" stroke-linejoin="bevel" width="192" height="48"/><rect id="shape1" transform="matrix(-0.999974958753412 0.00708001197738777 -0.00708001197738777 -0.999974958753412 120.692077073893 119.492063320855)" fill="none" stroke="#ebdbb2" stroke-width="1.2" stroke-linecap="square" stroke-linejoin="bevel" width="48" height="48"/><path id="shape2" transform="matrix(-0.707106796991615 0.707106796991615 -0.707106796991615 -0.707106796991615 192.406440073342 68.3399781816744)" fill="none" stroke="#ebdbb2" stroke-width="1.2" stroke-linecap="square" stroke-linejoin="miter" stroke-miterlimit="2" d="M0 0L132.9 132.9"/><path id="shape3" transform="matrix(-0.707106796991615 0.707106796991615 -0.707106796991615 -0.707106796991615 188.163797400132 122.815485384869)" fill="none" stroke="#ebdbb2" stroke-width="1.2" stroke-linecap="square" stroke-linejoin="miter" stroke-miterlimit="2" d="M132.692 132.692L0 0"/><path id="shape4" transform="matrix(-0.707106796991615 0.707106796991615 -0.707106796991615 -0.707106796991615 188.520979979708 44.406006151237)" fill="none" stroke="#ebdbb2" stroke-width="1.2" stroke-linecap="square" stroke-linejoin="miter" stroke-miterlimit="2" d="M28.8 0L0 28.8"/><path id="shape5" transform="matrix(-0.707106796991615 0.707106796991615 -0.707106796991615 -0.707106796991615 168.12076412498 24.0522859999601)" fill="none" stroke="#ebdbb2" stroke-width="1.2" stroke-linecap="square" stroke-linejoin="miter" stroke-miterlimit="2" d="M0 0L28.8 28.8"/><path id="shape6" transform="matrix(-0.707106796991615 0.707106796991615 -0.707106796991615 -0.707106796991615 124.342912114152 31.1429680123853)" fill="none" stroke="#ebdbb2" stroke-width="1.2" stroke-linecap="square" stroke-linejoin="miter" stroke-miterlimit="2" d="M43.2 0L0 43.2"/><path id="shape7" transform="matrix(-0.707106796991615 0.707106796991615 -0.707106796991615 -0.707106796991615 124.347154266354 160.115114290402)" fill="none" stroke="#ebdbb2" stroke-width="1.2" stroke-linecap="square" stroke-linejoin="miter" stroke-miterlimit="2" d="M0 43.206L43.206 0"/><path id="shape8" transform="matrix(-0.707106796991615 0.707106796991615 -0.707106796991615 -0.707106796991615 65.6363328837601 167.278360997541)" fill="none" stroke="#ebdbb2" stroke-width="1.2" stroke-linecap="square" stroke-linejoin="miter" stroke-miterlimit="2" d="M0 0L28.8 28.8"/><path id="shape9" transform="matrix(-0.707106796991615 0.707106796991615 -0.707106796991615 -0.707106796991615 45.2716571304016 146.913685244182)" fill="none" stroke="#ebdbb2" stroke-width="1.2" stroke-linecap="square" stroke-linejoin="miter" stroke-miterlimit="2" d="M28.8 0L0 28.8"/>
</svg>
